<svg xmlns="http://www.w3.org/2000/svg" viewBox="0 0 750 872.82">
	<path d="M73.69 818.796s-21.858-73.042-20.219-110.383c2.368-52.277 19.854-103.825 42.259-151.002 20.583-43.352 51.184-81.603 82.878-117.669 20.401-23.133 41.712-46.63 68.124-62.66 32.787-19.854 70.674-32.058 108.561-38.616 19.854-3.461 41.166-5.1 60.656 0 10.929 2.914 29.508 16.576 29.508 16.576l29.326-16.576s-5.829-19.49-5.465-29.326c.729-22.222 12.933-42.623 16.576-64.481 3.643-21.312 7.832-42.987 5.465-64.481-2.186-20.401-15.483-38.434-18.397-58.834-3.461-25.501-2.732-51.913 1.822-77.232 2.004-10.383 2.732-22.587 10.565-29.873 4.736-4.372 18.944-5.1 18.944-5.1S515.768.214 522.69-.15c10.018-.182 19.49 5.647 27.505 11.658 9.472 6.922 17.486 16.394 22.587 27.14 7.468 15.483 7.65 33.516 10.565 50.456 3.461 19.126 7.65 38.251 8.379 57.559.364 10.2-2.368 30.419-2.368 30.419s30.783.546 44.627 6.375c22.04 9.472 40.619 26.412 56.649 44.262 15.665 17.486 26.958 38.798 36.794 60.109 3.279 7.468 7.286 23.497 7.286 23.497 14.936 7.468 16.758 27.869 14.208 36.43-1.093 6.375-9.108 16.94-9.108 16.94-5.282 13.115-3.825 17.486-20.219 16.211 0 0-12.933 8.925-19.854 12.386-10.747 5.282-22.04 9.29-33.516 12.751-4.007 1.275-12.386 2.914-12.386 2.914s2.186 46.084.364 68.853c-1.457 19.308-2.732 39.162-9.654 57.195-7.832 20.037-22.04 36.976-34.973 54.281-8.197 10.747-18.215 20.401-27.14 30.783-5.464 6.375-12.204 11.84-16.029 19.308-10.929 20.583-14.754 44.262-18.944 67.031-3.097 18.033-7.832 36.612-4.554 54.281 4.918 26.047-3.643 63.752 22.04 70.674 34.791 9.654 32.787 37.341 22.587 37.341 0 0-88.707 11.475-114.026-10.018-8.015-6.74 2.186-21.129-1.275-35.519-4.189-17.122-15.301-40.619-18.579-52.641-4.007-15.483 2.368-32.605-2.186-47.905-3.097-10.018-16.211-26.776-16.211-26.776s-23.862 58.288-44.991 80.51c-20.037 20.947-73.589 46.084-73.589 46.084 45.355 9.29 61.931 24.408 57.013 44.08H206.113c-48.634-.729-119.855 15.118-133.334-4.554-8.743-12.933-26.047 19.49-51.184 8.379-40.073-25.319-25.865-50.456 52.095-51.548z" fill="white" />
	<path d="M619.047 244.295c-15.847-.182-30.237 13.661-12.933 33.88 5.1 6.011 14.936 4.918 22.769 5.282 7.65.182 16.029.729 17.486 1.093-2.004-4.736-2.55-8.197-3.825-13.297-1.457-5.647-.364-12.568-4.007-17.486-4.918-6.557-12.204-9.472-19.49-9.472zm27.323 40.255v.182c.364-.182.182-.182 0-.182z" fill="black" />
</svg>
